<svg width="900" height="600"><g transform="translate(40,20)"><g class="y axis" fill="none" font-size="10" font-family="sans-serif" text-anchor="end"><path class="domain" stroke="currentColor" d="M-6,510.5H0.5V0.5H-6"></path><g class="tick" opacity="1" transform="translate(0,510.5)"><line stroke="currentColor" x2="-6"></line><text fill="currentColor" x="-9" dy="0.32em">0</text></g><g class="tick" opacity="1" transform="translate(0,376.2894736842105)"><line stroke="currentColor" x2="-6"></line><text fill="currentColor" x="-9" dy="0.32em">20</text></g><g class="tick" opacity="1" transform="translate(0,242.07894736842104)"><line stroke="currentColor" x2="-6"></line><text fill="currentColor" x="-9" dy="0.32em">40</text></g><g class="tick" opacity="1" transform="translate(0,107.86842105263156)"><line stroke="currentColor" x2="-6"></line><text fill="currentColor" x="-9" dy="0.32em">60</text></g><text transform="rotate(-90)" y="-6" dy="-.71em" style="text-anchor: end; fill: black;">Messages</text></g><g class="x axis" transform="translate(0,510)" fill="none" font-size="10" font-family="sans-serif" text-anchor="middle"><path class="domain" stroke="currentColor" d="M0.5,6V0.5H840.5V6"></path><g class="tick" opacity="1" transform="translate(0.5,0)"><line stroke="currentColor" y2="6"></line><text fill="currentColor" y="9" dy="-.55em" style="text-anchor: end;" dx="-.8em" transform="rotate(-90)">01 AM</text></g><g class="tick" opacity="1" transform="translate(18.372340425531913,0)"><line stroke="currentColor" y2="6"></line><text fill="currentColor" y="9" dy="-.55em" style="text-anchor: end;" dx="-.8em" transform="rotate(-90)">02 AM</text></g><g class="tick" opacity="1" transform="translate(36.244680851063826,0)"><line stroke="currentColor" y2="6"></line><text fill="currentColor" y="9" dy="-.55em" style="text-anchor: end;" dx="-.8em" transform="rotate(-90)">03 AM</text></g><g class="tick" opacity="1" transform="translate(54.11702127659574,0)"><line stroke="currentColor" y2="6"></line><text fill="currentColor" y="9" dy="-.55em" style="text-anchor: end;" dx="-.8em" transform="rotate(-90)">04 AM</text></g><g class="tick" opacity="1" transform="translate(71.98936170212765,0)"><line stroke="currentColor" y2="6"></line><text fill="currentColor" y="9" dy="-.55em" style="text-anchor: end;" dx="-.8em" transform="rotate(-90)">05 AM</text></g><g class="tick" opacity="1" transform="translate(89.86170212765957,0)"><line stroke="currentColor" y2="6"></line><text fill="currentColor" y="9" dy="-.55em" style="text-anchor: end;" dx="-.8em" transform="rotate(-90)">06 AM</text></g><g class="tick" opacity="1" transform="translate(107.73404255319149,0)"><line stroke="currentColor" y2="6"></line><text fill="currentColor" y="9" dy="-.55em" style="text-anchor: end;" dx="-.8em" transform="rotate(-90)">07 AM</text></g><g class="tick" opacity="1" transform="translate(125.6063829787234,0)"><line stroke="currentColor" y2="6"></line><text fill="currentColor" y="9" dy="-.55em" style="text-anchor: end;" dx="-.8em" transform="rotate(-90)">08 AM</text></g><g class="tick" opacity="1" transform="translate(143.4787234042553,0)"><line stroke="currentColor" y2="6"></line><text fill="currentColor" y="9" dy="-.55em" style="text-anchor: end;" dx="-.8em" transform="rotate(-90)">09 AM</text></g><g class="tick" opacity="1" transform="translate(161.35106382978722,0)"><line stroke="currentColor" y2="6"></line><text fill="currentColor" y="9" dy="-.55em" style="text-anchor: end;" dx="-.8em" transform="rotate(-90)">10 AM</text></g><g class="tick" opacity="1" transform="translate(179.22340425531914,0)"><line stroke="currentColor" y2="6"></line><text fill="currentColor" y="9" dy="-.55em" style="text-anchor: end;" dx="-.8em" transform="rotate(-90)">11 AM</text></g><g class="tick" opacity="1" transform="translate(197.09574468085106,0)"><line stroke="currentColor" y2="6"></line><text fill="currentColor" y="9" dy="-.55em" style="text-anchor: end;" dx="-.8em" transform="rotate(-90)">12 PM</text></g><g class="tick" opacity="1" transform="translate(214.96808510638297,0)"><line stroke="currentColor" y2="6"></line><text fill="currentColor" y="9" dy="-.55em" style="text-anchor: end;" dx="-.8em" transform="rotate(-90)">01 PM</text></g><g class="tick" opacity="1" transform="translate(232.8404255319149,0)"><line stroke="currentColor" y2="6"></line><text fill="currentColor" y="9" dy="-.55em" style="text-anchor: end;" dx="-.8em" transform="rotate(-90)">02 PM</text></g><g class="tick" opacity="1" transform="translate(250.7127659574468,0)"><line stroke="currentColor" y2="6"></line><text fill="currentColor" y="9" dy="-.55em" style="text-anchor: end;" dx="-.8em" transform="rotate(-90)">03 PM</text></g><g class="tick" opacity="1" transform="translate(268.5851063829787,0)"><line stroke="currentColor" y2="6"></line><text fill="currentColor" y="9" dy="-.55em" style="text-anchor: end;" dx="-.8em" transform="rotate(-90)">04 PM</text></g><g class="tick" opacity="1" transform="translate(286.4574468085106,0)"><line stroke="currentColor" y2="6"></line><text fill="currentColor" y="9" dy="-.55em" style="text-anchor: end;" dx="-.8em" transform="rotate(-90)">05 PM</text></g><g class="tick" opacity="1" transform="translate(304.32978723404256,0)"><line stroke="currentColor" y2="6"></line><text fill="currentColor" y="9" dy="-.55em" style="text-anchor: end;" dx="-.8em" transform="rotate(-90)">06 PM</text></g><g class="tick" opacity="1" transform="translate(322.20212765957444,0)"><line stroke="currentColor" y2="6"></line><text fill="currentColor" y="9" dy="-.55em" style="text-anchor: end;" dx="-.8em" transform="rotate(-90)">07 PM</text></g><g class="tick" opacity="1" transform="translate(340.07446808510633,0)"><line stroke="currentColor" y2="6"></line><text fill="currentColor" y="9" dy="-.55em" style="text-anchor: end;" dx="-.8em" transform="rotate(-90)">08 PM</text></g><g class="tick" opacity="1" transform="translate(357.9468085106383,0)"><line stroke="currentColor" y2="6"></line><text fill="currentColor" y="9" dy="-.55em" style="text-anchor: end;" dx="-.8em" transform="rotate(-90)">09 PM</text></g><g class="tick" opacity="1" transform="translate(375.8191489361702,0)"><line stroke="currentColor" y2="6"></line><text fill="currentColor" y="9" dy="-.55em" style="text-anchor: end;" dx="-.8em" transform="rotate(-90)">10 PM</text></g><g class="tick" opacity="1" transform="translate(393.6914893617021,0)"><line stroke="currentColor" y2="6"></line><text fill="currentColor" y="9" dy="-.55em" style="text-anchor: end;" dx="-.8em" transform="rotate(-90)">11 PM</text></g><g class="tick" opacity="1" transform="translate(411.56382978723406,0)"><line stroke="currentColor" y2="6"></line><text fill="currentColor" y="9" dy="-.55em" style="text-anchor: end;" dx="-.8em" transform="rotate(-90)">Mon 22</text></g><g class="tick" opacity="1" transform="translate(429.43617021276594,0)"><line stroke="currentColor" y2="6"></line><text fill="currentColor" y="9" dy="-.55em" style="text-anchor: end;" dx="-.8em" transform="rotate(-90)">01 AM</text></g><g class="tick" opacity="1" transform="translate(447.3085106382979,0)"><line stroke="currentColor" y2="6"></line><text fill="currentColor" y="9" dy="-.55em" style="text-anchor: end;" dx="-.8em" transform="rotate(-90)">02 AM</text></g><g class="tick" opacity="1" transform="translate(465.1808510638298,0)"><line stroke="currentColor" y2="6"></line><text fill="currentColor" y="9" dy="-.55em" style="text-anchor: end;" dx="-.8em" transform="rotate(-90)">03 AM</text></g><g class="tick" opacity="1" transform="translate(483.0531914893617,0)"><line stroke="currentColor" y2="6"></line><text fill="currentColor" y="9" dy="-.55em" style="text-anchor: end;" dx="-.8em" transform="rotate(-90)">04 AM</text></g><g class="tick" opacity="1" transform="translate(500.9255319148936,0)"><line stroke="currentColor" y2="6"></line><text fill="currentColor" y="9" dy="-.55em" style="text-anchor: end;" dx="-.8em" transform="rotate(-90)">05 AM</text></g><g class="tick" opacity="1" transform="translate(518.7978723404256,0)"><line stroke="currentColor" y2="6"></line><text fill="currentColor" y="9" dy="-.55em" style="text-anchor: end;" dx="-.8em" transform="rotate(-90)">06 AM</text></g><g class="tick" opacity="1" transform="translate(536.6702127659574,0)"><line stroke="currentColor" y2="6"></line><text fill="currentColor" y="9" dy="-.55em" style="text-anchor: end;" dx="-.8em" transform="rotate(-90)">07 AM</text></g><g class="tick" opacity="1" transform="translate(554.5425531914893,0)"><line stroke="currentColor" y2="6"></line><text fill="currentColor" y="9" dy="-.55em" style="text-anchor: end;" dx="-.8em" transform="rotate(-90)">08 AM</text></g><g class="tick" opacity="1" transform="translate(572.4148936170212,0)"><line stroke="currentColor" y2="6"></line><text fill="currentColor" y="9" dy="-.55em" style="text-anchor: end;" dx="-.8em" transform="rotate(-90)">09 AM</text></g><g class="tick" opacity="1" transform="translate(590.2872340425532,0)"><line stroke="currentColor" y2="6"></line><text fill="currentColor" y="9" dy="-.55em" style="text-anchor: end;" dx="-.8em" transform="rotate(-90)">10 AM</text></g><g class="tick" opacity="1" transform="translate(608.1595744680851,0)"><line stroke="currentColor" y2="6"></line><text fill="currentColor" y="9" dy="-.55em" style="text-anchor: end;" dx="-.8em" transform="rotate(-90)">11 AM</text></g><g class="tick" opacity="1" transform="translate(626.031914893617,0)"><line stroke="currentColor" y2="6"></line><text fill="currentColor" y="9" dy="-.55em" style="text-anchor: end;" dx="-.8em" transform="rotate(-90)">12 PM</text></g><g class="tick" opacity="1" transform="translate(643.9042553191489,0)"><line stroke="currentColor" y2="6"></line><text fill="currentColor" y="9" dy="-.55em" style="text-anchor: end;" dx="-.8em" transform="rotate(-90)">01 PM</text></g><g class="tick" opacity="1" transform="translate(661.7765957446809,0)"><line stroke="currentColor" y2="6"></line><text fill="currentColor" y="9" dy="-.55em" style="text-anchor: end;" dx="-.8em" transform="rotate(-90)">02 PM</text></g><g class="tick" opacity="1" transform="translate(679.6489361702127,0)"><line stroke="currentColor" y2="6"></line><text fill="currentColor" y="9" dy="-.55em" style="text-anchor: end;" dx="-.8em" transform="rotate(-90)">03 PM</text></g><g class="tick" opacity="1" transform="translate(697.5212765957447,0)"><line stroke="currentColor" y2="6"></line><text fill="currentColor" y="9" dy="-.55em" style="text-anchor: end;" dx="-.8em" transform="rotate(-90)">04 PM</text></g><g class="tick" opacity="1" transform="translate(715.3936170212766,0)"><line stroke="currentColor" y2="6"></line><text fill="currentColor" y="9" dy="-.55em" style="text-anchor: end;" dx="-.8em" transform="rotate(-90)">05 PM</text></g><g class="tick" opacity="1" transform="translate(733.2659574468086,0)"><line stroke="currentColor" y2="6"></line><text fill="currentColor" y="9" dy="-.55em" style="text-anchor: end;" dx="-.8em" transform="rotate(-90)">06 PM</text></g><g class="tick" opacity="1" transform="translate(751.1382978723404,0)"><line stroke="currentColor" y2="6"></line><text fill="currentColor" y="9" dy="-.55em" style="text-anchor: end;" dx="-.8em" transform="rotate(-90)">07 PM</text></g><g class="tick" opacity="1" transform="translate(769.0106382978723,0)"><line stroke="currentColor" y2="6"></line><text fill="currentColor" y="9" dy="-.55em" style="text-anchor: end;" dx="-.8em" transform="rotate(-90)">08 PM</text></g><g class="tick" opacity="1" transform="translate(786.8829787234042,0)"><line stroke="currentColor" y2="6"></line><text fill="currentColor" y="9" dy="-.55em" style="text-anchor: end;" dx="-.8em" transform="rotate(-90)">09 PM</text></g><g class="tick" opacity="1" transform="translate(804.7553191489362,0)"><line stroke="currentColor" y2="6"></line><text fill="currentColor" y="9" dy="-.55em" style="text-anchor: end;" dx="-.8em" transform="rotate(-90)">10 PM</text></g><g class="tick" opacity="1" transform="translate(822.6276595744681,0)"><line stroke="currentColor" y2="6"></line><text fill="currentColor" y="9" dy="-.55em" style="text-anchor: end;" dx="-.8em" transform="rotate(-90)">11 PM</text></g><g class="tick" opacity="1" transform="translate(840.5,0)"><line stroke="currentColor" y2="6"></line><text fill="currentColor" y="9" dy="-.55em" style="text-anchor: end;" dx="-.8em" transform="rotate(-90)">Tue 23</text></g></g><rect style="fill: steelblue;" x="0" width="17.5" y="328.8157894736842" height="181.18421052631578"></rect><rect style="fill: steelblue;" x="17.872340425531913" width="17.5" y="342.2368421052631" height="167.76315789473688"></rect><rect style="fill: steelblue;" x="35.744680851063826" width="17.5" y="355.6578947368421" height="154.34210526315792"></rect><rect style="fill: steelblue;" x="53.61702127659574" width="17.5" y="389.2105263157895" height="120.78947368421052"></rect><rect style="fill: steelblue;" x="71.48936170212765" width="17.5" y="402.63157894736844" height="107.36842105263156"></rect><rect style="fill: steelblue;" x="89.36170212765957" width="17.5" y="375.7894736842105" height="134.21052631578948"></rect><rect style="fill: steelblue;" x="107.23404255319149" width="17.5" y="355.6578947368421" height="154.34210526315792"></rect><rect style="fill: steelblue;" x="125.1063829787234" width="17.5" y="328.8157894736842" height="181.18421052631578"></rect><rect style="fill: steelblue;" x="142.9787234042553" width="17.5" y="355.6578947368421" height="154.34210526315792"></rect><rect style="fill: steelblue;" x="160.85106382978722" width="17.5" y="369.07894736842104" height="140.92105263157896"></rect><rect style="fill: steelblue;" x="178.72340425531914" width="17.5" y="375.7894736842105" height="134.21052631578948"></rect><rect style="fill: steelblue;" x="196.59574468085106" width="17.5" y="369.07894736842104" height="140.92105263157896"></rect><rect style="fill: steelblue;" x="214.46808510638297" width="17.5" y="402.63157894736844" height="107.36842105263156"></rect><rect style="fill: steelblue;" x="232.3404255319149" width="17.5" y="402.63157894736844" height="107.36842105263156"></rect><rect style="fill: steelblue;" x="250.2127659574468" width="17.5" y="348.9473684210526" height="161.0526315789474"></rect><rect style="fill: steelblue;" x="268.0851063829787" width="17.5" y="416.0526315789474" height="93.9473684210526"></rect><rect style="fill: steelblue;" x="285.9574468085106" width="17.5" y="348.9473684210526" height="161.0526315789474"></rect><rect style="fill: steelblue;" x="303.82978723404256" width="17.5" y="382.5" height="127.5"></rect><rect style="fill: steelblue;" x="321.70212765957444" width="17.5" y="335.52631578947364" height="174.47368421052636"></rect><rect style="fill: steelblue;" x="339.57446808510633" width="17.5" y="355.6578947368421" height="154.34210526315792"></rect><rect style="fill: steelblue;" x="357.4468085106383" width="17.5" y="422.7631578947368" height="87.23684210526318"></rect><rect style="fill: steelblue;" x="375.3191489361702" width="17.5" y="389.2105263157895" height="120.78947368421052"></rect><rect style="fill: steelblue;" x="393.1914893617021" width="17.5" y="422.7631578947368" height="87.23684210526318"></rect><rect style="fill: steelblue;" x="411.06382978723406" width="17.5" y="375.7894736842105" height="134.21052631578948"></rect><rect style="fill: steelblue;" x="428.93617021276594" width="17.5" y="80.5263157894737" height="429.4736842105263"></rect><rect style="fill: steelblue;" x="446.8085106382979" width="17.5" y="120.78947368421052" height="389.2105263157895"></rect><rect style="fill: steelblue;" x="464.6808510638298" width="17.5" y="80.5263157894737" height="429.4736842105263"></rect><rect style="fill: steelblue;" x="482.5531914893617" width="17.5" y="134.21052631578948" height="375.7894736842105"></rect><rect style="fill: steelblue;" x="500.4255319148936" width="17.5" y="80.5263157894737" height="429.4736842105263"></rect><rect style="fill: steelblue;" x="518.2978723404256" width="17.5" y="114.07894736842104" height="395.92105263157896"></rect><rect style="fill: steelblue;" x="536.1702127659574" width="17.5" y="33.55263157894734" height="476.44736842105266"></rect><rect style="fill: steelblue;" x="554.0425531914893" width="17.5" y="53.68421052631578" height="456.3157894736842"></rect><rect style="fill: steelblue;" x="571.9148936170212" width="17.5" y="100.65789473684208" height="409.3421052631579"></rect><rect style="fill: steelblue;" x="589.7872340425532" width="17.5" y="120.78947368421052" height="389.2105263157895"></rect><rect style="fill: steelblue;" x="607.6595744680851" width="17.5" y="167.76315789473688" height="342.2368421052631"></rect><rect style="fill: steelblue;" x="625.531914893617" width="17.5" y="67.10526315789474" height="442.89473684210526"></rect><rect style="fill: steelblue;" x="643.4042553191489" width="17.5" y="154.34210526315792" height="355.6578947368421"></rect><rect style="fill: steelblue;" x="661.2765957446809" width="17.5" y="46.9736842105263" height="463.0263157894737"></rect><rect style="fill: steelblue;" x="679.1489361702127" width="17.5" y="0" height="510"></rect><rect style="fill: steelblue;" x="697.0212765957447" width="17.5" y="33.55263157894734" height="476.44736842105266"></rect><rect style="fill: steelblue;" x="714.8936170212766" width="17.5" y="93.94736842105266" height="416.05263157894734"></rect><rect style="fill: steelblue;" x="732.7659574468086" width="17.5" y="26.84210526315792" height="483.1578947368421"></rect><rect style="fill: steelblue;" x="750.6382978723404" width="17.5" y="107.36842105263156" height="402.63157894736844"></rect><rect style="fill: steelblue;" x="768.5106382978723" width="17.5" y="154.34210526315792" height="355.6578947368421"></rect><rect style="fill: steelblue;" x="786.3829787234042" width="17.5" y="46.9736842105263" height="463.0263157894737"></rect><rect style="fill: steelblue;" x="804.2553191489362" width="17.5" y="100.65789473684208" height="409.3421052631579"></rect><rect style="fill: steelblue;" x="822.1276595744681" width="17.5" y="100.65789473684208" height="409.3421052631579"></rect><rect style="fill: steelblue;" x="840" width="17.5" y="87.23684210526312" height="422.7631578947369"></rect></g></svg>