<?xml version="1.0" standalone="no"?>
<!DOCTYPE svg PUBLIC "-//W3C//DTD SVG 1.1//EN"
  "http://www.w3.org/Graphics/SVG/1.1/DTD/svg11.dtd">
<svg version="1.1" xmlns="http://www.w3.org/2000/svg" xmlns:xlink="http://www.w3.org/1999/xlink" width="1280" height="720" viewBox="-1040.8888888888887 -32 1889.7777777777776 1063" id="ccdiagram"><filter id="grayscale"><feColorMatrix type="matrix" values="0.3333 0.3333 0.3333 0 0 0.3333 0.3333 0.3333 0 0 0.3333 0.3333 0.3333 0 0 0 0 0 1 0"></feColorMatrix></filter><defs><style type="text/css">@import url('https://fonts.googleapis.com/css?family=Open+Sans:400,700|Inconsolata:400');</style></defs><g><g pointer-events="auto"></g><g pointer-events="auto"></g><g></g><g pointer-events="auto"></g><g></g><g pointer-events="auto"></g><g pointer-events="none"></g><g pointer-events="auto"><g><g cursor="cell"><line x1="-368" y1="564" x2="-346" y2="551" stroke="red" stroke-width="8" opacity="0"></line><line x1="-368" y1="564" x2="-346" y2="551" stroke="#000000" stroke-width="2" stroke-linecap="round"></line><polygon points="-336 546, -362 551, -348 553, -345 561, -336 546" stroke-linejoin="round" fill="#000000" stroke="#000000" stroke-width="1"></polygon></g></g><g><g cursor="cell"><line x1="-224" y1="648" x2="-202" y2="635" stroke="red" stroke-width="8" opacity="0"></line><line x1="-224" y1="648" x2="-202" y2="635" stroke="#000000" stroke-width="2" stroke-linecap="round"></line><polygon points="-192 629, -218 634, -204 636, -201 644, -192 629" stroke-linejoin="round" fill="#000000" stroke="#000000" stroke-width="1"></polygon></g></g><g><g cursor="cell"><line x1="-640" y1="666" x2="-624" y2="546" stroke="red" stroke-width="8" opacity="0"></line><line x1="-640" y1="666" x2="-624" y2="546" stroke="#000000" stroke-width="2" stroke-linecap="round"></line></g></g><g><g cursor="cell"><line x1="-624" y1="546" x2="-562" y2="510" stroke="red" stroke-width="8" opacity="0"></line><line x1="-624" y1="546" x2="-562" y2="510" stroke="#000000" stroke-width="2" stroke-linecap="round"></line><polygon points="-552 504, -578 510, -565 512, -562 519, -552 504" stroke-linejoin="round" fill="#000000" stroke="#000000" stroke-width="1"></polygon></g></g><g><g cursor="cell"><line x1="-304" y1="509" x2="-432" y2="435" stroke="red" stroke-width="8" opacity="0"></line><line x1="-304" y1="509" x2="-432" y2="435" stroke="#000000" stroke-width="2" stroke-linecap="round"></line></g></g><g><g cursor="cell"><line x1="-288" y1="611" x2="-368" y2="564" stroke="red" stroke-width="8" opacity="0"></line><line x1="-288" y1="611" x2="-368" y2="564" stroke="#000000" stroke-width="2" stroke-linecap="round"></line></g></g><g><g cursor="cell"><line x1="-336" y1="416" x2="-274" y2="380" stroke="red" stroke-width="8" opacity="0"></line><line x1="-336" y1="416" x2="-274" y2="380" stroke="#000000" stroke-width="2" stroke-linecap="round"></line><polygon points="-264 375, -290 380, -277 382, -274 390, -264 375" stroke-linejoin="round" fill="#000000" stroke="#000000" stroke-width="1"></polygon></g></g><g><g cursor="cell"><line x1="-144" y1="601" x2="-96" y2="574" stroke="red" stroke-width="8" opacity="0"></line><line x1="-144" y1="601" x2="-96" y2="574" stroke="#000000" stroke-width="2" stroke-linecap="round"></line></g></g><g><g cursor="cell"><line x1="-176" y1="527" x2="-130" y2="501" stroke="red" stroke-width="8" opacity="0"></line><line x1="-176" y1="527" x2="-130" y2="501" stroke="#000000" stroke-width="2" stroke-linecap="round"></line><polygon points="-120 495, -146 500, -133 502, -130 510, -120 495" stroke-linejoin="round" fill="#000000" stroke="#000000" stroke-width="1"></polygon></g></g><g><g cursor="cell"><line x1="-352" y1="648" x2="-288" y2="611" stroke="red" stroke-width="8" opacity="0"></line><line x1="-352" y1="648" x2="-288" y2="611" stroke="#000000" stroke-width="2" stroke-linecap="round"></line></g></g><g><g cursor="cell"><line x1="-96" y1="574" x2="-176" y2="527" stroke="red" stroke-width="8" opacity="0"></line><line x1="-96" y1="574" x2="-176" y2="527" stroke="#000000" stroke-width="2" stroke-linecap="round"></line></g></g><g><g cursor="cell"><line x1="-432" y1="435" x2="-462" y2="452" stroke="red" stroke-width="8" opacity="0"></line><line x1="-432" y1="435" x2="-462" y2="452" stroke="#000000" stroke-width="2" stroke-linecap="round"></line><polygon points="-472 458, -446 452, -459 450, -462 443, -472 458" stroke-linejoin="round" fill="#000000" stroke="#000000" stroke-width="1"></polygon></g></g><g><g cursor="cell"><line x1="-352" y1="648" x2="-288" y2="611" stroke="red" stroke-width="8" opacity="0"></line><line x1="-352" y1="648" x2="-288" y2="611" stroke="#000000" stroke-width="2" stroke-linecap="round"></line></g></g><g><g cursor="cell"><line x1="-336" y1="416" x2="-336" y2="416" stroke="red" stroke-width="8" opacity="0"></line><line x1="-336" y1="416" x2="-336" y2="416" stroke="#000000" stroke-width="2" stroke-linecap="round"></line></g></g><g><g cursor="cell"><line x1="-492" y1="728" x2="-402" y2="676" stroke="red" stroke-width="8" opacity="0"></line><line x1="-492" y1="728" x2="-402" y2="676" stroke="#000000" stroke-width="2" stroke-linecap="round"></line><polygon points="-392 671, -418 676, -405 678, -402 686, -392 671" stroke-linejoin="round" fill="#000000" stroke="#000000" stroke-width="1"></polygon></g></g><g><g cursor="cell"><line x1="-304" y1="509" x2="-256" y2="481" stroke="red" stroke-width="8" opacity="0"></line><line x1="-304" y1="509" x2="-256" y2="481" stroke="#000000" stroke-width="2" stroke-linecap="round"></line></g></g><g><g cursor="cell"><line x1="-336" y1="416" x2="-336" y2="416" stroke="red" stroke-width="8" opacity="0"></line><line x1="-336" y1="416" x2="-336" y2="416" stroke="#000000" stroke-width="2" stroke-linecap="round"></line></g></g><g><g cursor="cell"><line x1="-256" y1="481" x2="-176" y2="527" stroke="red" stroke-width="8" opacity="0"></line><line x1="-256" y1="481" x2="-176" y2="527" stroke="#000000" stroke-width="2" stroke-linecap="round"></line></g></g><g><g cursor="cell"><line x1="-552" y1="717" x2="-640" y2="666" stroke="red" stroke-width="8" opacity="0"></line><line x1="-552" y1="717" x2="-640" y2="666" stroke="#000000" stroke-width="2" stroke-linecap="round"></line></g></g><g><g cursor="cell"><line x1="-304" y1="509" x2="-336" y2="416" stroke="red" stroke-width="8" opacity="0"></line><line x1="-304" y1="509" x2="-336" y2="416" stroke="#000000" stroke-width="2" stroke-linecap="round"></line></g></g><g><g cursor="cell"><line x1="-288" y1="611" x2="-224" y2="648" stroke="red" stroke-width="8" opacity="0"></line><line x1="-288" y1="611" x2="-224" y2="648" stroke="#000000" stroke-width="2" stroke-linecap="round"></line></g></g><g><g cursor="cell"><line x1="-176" y1="527" x2="-130" y2="501" stroke="red" stroke-width="8" opacity="0"></line><line x1="-176" y1="527" x2="-130" y2="501" stroke="#000000" stroke-width="2" stroke-linecap="round"></line><polygon points="-120 495, -146 500, -133 502, -130 510, -120 495" stroke-linejoin="round" fill="#000000" stroke="#000000" stroke-width="1"></polygon></g></g></g><g pointer-events="auto"><g opacity="1"><g id="740fd6ad-6d38-49ca-a978-1556f5506e4b" transform="translate(0 0)"><svg x="-552" y="663" height="95.068" width="63" viewBox="0 0 16.669 25.153"><path d="M16.668 22.903q0 1.64-.864 2.091-.865.451-2.297-.376L3.161 18.645q-1.433-.827-2.297-2.276Q.001 14.921 0 13.28q0-.723.042-1.39.042-.666.166-1.394.124-.727.313-1.302.19-.575.51-1.039.319-.464.733-.683.414-.22 1.012-.147.598.073 1.32.49.107.06.497.58.391.52.882 1.165.491.646 1.279 1.394.788.75 1.58 1.207.793.458 1.58.618.788.161 1.28.083.49-.079.881-.147.39-.069.497-.007.722.416 1.32 1.035.598.619 1.013 1.315.414.697.734 1.531t.509 1.627q.19.793.313 1.664.124.872.166 1.586.042.713.042 1.438zM12.88 8.51q0 2.173-1.332 2.942-1.332.769-3.214-.318-1.882-1.086-3.214-3.393Q3.79 5.434 3.79 3.26q0-2.173 1.331-2.942 1.332-.77 3.214.317t3.214 3.394q1.332 2.306 1.332 4.48z" fill="#000" stroke="#000000" stroke-width=".268"></path></svg></g></g></g><g pointer-events="auto"></g><g pointer-events="auto"><g opacity="1"><g id="fd710226-4811-4de1-8716-9939c338ee70" transform="translate(0 0)"><svg x="-624" y="546" overflow="visible"><g transform="scale(0.8944271909999159) matrix(0.707 0.409 -0.707 0.409 0 0)"><circle cx="0" cy="0" fill="#ffc107" r="23"></circle><svg width="27" height="32" x="-13.5" y="-16" style="fill: rgb(255, 255, 255);"><svg xmlns="http://www.w3.org/2000/svg" width="27" height="32" viewBox="0 0 27 32"><path d="M26.214 6.786c.661.661 1.214 1.982 1.214 2.929v20.571c0 .946-.768 1.714-1.714 1.714h-24A1.715 1.715 0 0 1 0 30.286V1.715C0 .769.768.001 1.714.001h16c.946 0 2.268.554 2.929 1.214zm-7.928-4.357v6.714H25c-.107-.304-.268-.607-.393-.732l-5.589-5.589c-.125-.125-.429-.286-.732-.393zm6.857 27.285V11.428h-7.429A1.715 1.715 0 0 1 16 9.714V2.285H2.286v27.429h22.857zM6.857 14.286c0-.321.25-.571.571-.571h12.571c.321 0 .571.25.571.571v1.143c0 .321-.25.571-.571.571H7.428a.564.564 0 0 1-.571-.571v-1.143zm13.143 4c.321 0 .571.25.571.571V20c0 .321-.25.571-.571.571H7.429A.564.564 0 0 1 6.858 20v-1.143c0-.321.25-.571.571-.571H20zm0 4.571c.321 0 .571.25.571.571v1.143c0 .321-.25.571-.571.571H7.429a.564.564 0 0 1-.571-.571v-1.143c0-.321.25-.571.571-.571H20z"></path></svg></svg></g></svg></g></g><g opacity="1"><g id="3d559333-b9fc-45b9-b700-0dcf082ee96d" transform="translate(0 0)"><svg x="-80" y="472" overflow="visible"><g transform=" "><circle cx="0" cy="0" fill="rgba(0, 0, 0, 0)" r="40"></circle><svg width="100" height="100" x="-50" y="-50" style="fill: rgb(255, 255, 255);"><svg data-name="Layer 1" xmlns="http://www.w3.org/2000/svg" width="100" height="100" viewBox="0 0 100 100"><g><path fill="#9d5025" d="M16.03 74.05l4.35 2.23 1.76-.41.33-31-2.09-.1-4.35.43v28.85z"></path><path fill="#f58534" d="M28.2 74.44l-7.82 1.84V44.77l7.82.37v29.3z"></path><path fill="#9d5025" d="M24.47 78.27l7.46 3.78 4.83-1.54V31.74l-4.83-.92-7.46 2.24v45.21z"></path><path fill="#f58534" d="M44.7 77.97l-12.77 4.08V30.82l12.77 2.45v44.7z"></path><path fill="#9d5025" d="M72.92 32.35v35.4l8.56 1.34V30.82l-8.56 1.53z"></path><path fill="#6b3b19" d="M53.1 30.3l1.74-10.78 24.79 9.1v5.72l-6.58.93L53.1 30.3z"></path><path fill="#fcbf92" d="M50.79 70.36l7.19 8.56 21.65-7.35v-5.84l-6.64-.93-22.2 5.56z"></path><path fill="#9d5025" d="M37.9 84.98l12.1 6 7.16-3.58 2.36-73.67L50 8.98l-12.1 6.05v69.95z"></path><path d="M50 9v82l34-17V26zm29.63 56.73l-19.44 5.84v-43l19.45 5.79z" fill="#f58534"></path></g></svg></svg></g></svg></g></g><g opacity="1"><g id="3f7aedc7-c85e-4eab-8091-0037610d094c" transform="translate(0 0)"><svg x="-224" y="352" overflow="visible"><g transform=" "><circle cx="0" cy="0" fill="rgba(0, 0, 0, 0)" r="40"></circle><svg width="100" height="100" x="-50" y="-50" style="fill: rgb(255, 255, 255);"><svg data-name="Layer 1" xmlns="http://www.w3.org/2000/svg" width="100" height="100" viewBox="0 0 100 100"><g><path fill="#876929" d="M31.4 21.96L14.7 48.55l16.7 26.59 13.34-3.42.66-46.17-14-3.59z"></path><path fill="#d9a741" d="M50.05 70.36L31.4 75.14V21.96l18.65 4.78v43.62z"></path><path fill="#876929" d="M47.83 31.08l2.22 60.08L85.3 73.53l-.01-44.88-8.99 1.49-28.47.94z"></path><path fill="#876929" d="M61.28 42.95l11-.65 10.87-19.72L55.66 8.84 45.4 13.33l15.88 29.62z"></path><path fill="#d9a741" d="M55.66 8.84l27.49 13.74L72.28 42.3 55.66 8.84z"></path><path fill="#876929" d="M50.05 14.54l22.23 40.34 3.82 23.25-26.05 13.03-10.55-5.28V18.76l10.54-4.22h.01z"></path><path fill="#d9a741" d="M85.29 28.65l.01 44.88-35.25 17.63V14.54l22.23 40.34 13.01-26.23z"></path></g></svg></svg></g></svg></g></g><g opacity="1"><g id="1b75d2e5-b196-4f3b-a0fe-39a7f1f25fe0" transform="translate(0 0)"><svg x="-512" y="481" overflow="visible"><g transform=" "><circle cx="0" cy="0" fill="rgba(0, 0, 0, 0)" r="40"></circle><svg width="100" height="100" x="-50" y="-50" style="fill: rgb(255, 255, 255);"><svg data-name="Layer 1" xmlns="http://www.w3.org/2000/svg" width="100" height="100" viewBox="0 0 100 100"><g><path fill="#8c3123" d="M21.54 23.23l-5.46 2.73v47.97l5.46 2.73 13.4-26.72-13.4-26.71z"></path><path fill="#e05243" d="M50 69.76l-28.46 6.89V23.23L50 30.12l13.45 19.9L50 69.76z"></path><path fill="#8c3123" d="M50 69.76l28.45 6.89 4.92-26.03-4.92-27.39L50 30.12v39.64z"></path><path fill="#e05243" d="M78.45 23.23l5.47 2.73v47.97l-5.47 2.73V23.23z"></path><path fill="#8c3123" d="M37.59 58.78L50 60.37l9.84-10.35L50 39.68l-12.41 1.56v17.54z"></path><path fill="#5e1f18" d="M62.41 32.75L50 35.01l-12.41-2.26L50 9l12.41 23.75z"></path><path fill="#f2b0a9" d="M62.41 67.25L50 64.97l-12.41 2.28L50 91l12.41-23.75z"></path><path fill="#e05243" d="M62.41 32.75L50 29.68V9l12.41 6.2v17.55z"></path><path fill="#8c3123" d="M37.59 32.75L50 29.68V9l-12.41 6.2v17.55z"></path><path fill="#e05243" d="M50 91l12.41-6.2V67.25L50 70.32V91z"></path><path fill="#8c3123" d="M50 91l-12.41-6.2V67.25L50 70.32V91z"></path><path fill="#e05243" d="M62.41 58.78L50 60.37V39.68l12.41 1.56v17.54z"></path></g></svg></svg></g></svg></g></g><g opacity="1"><g id="e88026df-c9b2-4169-895e-d43349483181" transform="translate(0 0)"><svg x="-352" y="648" overflow="visible"><g transform=" "><circle cx="0" cy="0" fill="rgba(0, 0, 0, 0)" r="40"></circle><svg width="100" height="100" x="-50" y="-50" style="fill: rgb(255, 255, 255);"><svg data-name="Layer 1" xmlns="http://www.w3.org/2000/svg" width="100" height="100" viewBox="0 0 100 100"><g><path fill="#fad791" d="M84.1 55.15l-16.56-.68-10.73.68 17.71 24.08 9.58-24.08z"></path><path fill="#624a1e" d="M84.1 45.18l-16.56.68-10.73-.68L74.52 21.1l9.58 24.08zM15.9 45.15l16.56.71 10.73-.68-17.71-23.96-9.58 23.93z"></path><path fill="#fad791" d="M15.9 55.15l16.56-.68 10.73.68-17.71 24.1-9.58-24.1z"></path><path fill="#d9a741" d="M74.52 44.22l9.58.96V25.89l-9.58-4.79v23.12z"></path><path fill="#876929" d="M56.81 25.88l17.71-4.78v23.12l-17.71.96v-19.3z"></path><path fill="#d9a741" d="M50 23.08l19.18 6.27v9.54L50 35.51V23.08z"></path><path fill="#624a1e" d="M41.36 37.08l8.78-1.55 19.04 3.36-8.51.93-19.31-2.74z"></path><path fill="#876929" d="M25.48 44.22l-9.58.93V25.8l9.58-4.72v23.14z"></path><path fill="#d9a741" d="M43.19 25.88l-17.71-4.8v23.14l17.71.96v-19.3z"></path><path fill="#876929" d="M50 23.08l-19.18 6.27v9.54L50 35.51V23.08z"></path><path fill="#624a1e" d="M58.64 37.08l-8.78-1.55-19.04 3.36 8.51.93 19.31-2.74z"></path><path fill="#d9a741" d="M74.52 56.11l9.58-.96v19.29l-9.58 4.79V56.11z"></path><path fill="#876929" d="M56.81 74.45l17.71 4.78V56.11l-17.71-.96v19.3z"></path><path fill="#d9a741" d="M50 77.25l19.18-6.27v-9.54L50 64.82v12.43z"></path><path fill="#fad791" d="M41.36 63.25l8.78 1.54 19.04-3.35-8.51-.93-19.31 2.74z"></path><path fill="#876929" d="M25.48 56.11l-9.58-.96v19.29l9.58 4.81V56.11z"></path><path fill="#d9a741" d="M43.19 74.45l-17.71 4.8V56.11l17.71-.96v19.3z"></path><path fill="#876929" d="M50 77.25l-19.18-6.27v-9.54L50 64.82v12.43z"></path><path fill="#fad791" d="M58.64 63.25l-8.78 1.54-19.04-3.35 8.51-.93 19.31 2.74z"></path><path fill="#876929" d="M39.8 86.06l10.2 5.1 5.66-2.83 4.54-74.39L50 8.84l-10.2 5.1v72.12z"></path><path fill="#d9a741" d="M60.2 86.06L50 91.16V8.84l10.2 5.1v72.12z"></path></g></svg></svg></g></svg></g></g><g opacity="1"><g id="ae0de6e5-a48b-4480-99a5-4b4dc49256a9" transform="translate(0 0)"><svg x="-144" y="601" overflow="visible"><g transform=" "><circle cx="0" cy="0" fill="rgba(0, 0, 0, 0)" r="40"></circle><svg width="100" height="100" x="-50" y="-50" style="fill: rgb(255, 255, 255);"><svg data-name="Layer 1" xmlns="http://www.w3.org/2000/svg" width="100" height="100" viewBox="0 0 100 100"><g><path fill="#9d5025" d="M15.91 74.12l4.34 2.17 7.67-26.25-7.67-26.33-4.34 2.17v48.24z"></path><path fill="#f58536" d="M28.65 25.71l-8.4-1.97v52.55l8.4-1.97V25.71z"></path><path fill="#9d5025" d="M25.47 21.1l6.37-3.19 7.95 32.13-7.95 32.05-6.37-3.19V21.1z"></path><path fill="#f58536" d="M44.89 77.81l-13.05 4.16V17.91l13.05 4.17v55.73z"></path><path fill="#9d5025" d="M74.52 29.17h5.22v39.95l-5.22-.29V29.17z"></path><path fill="#6b3a19" d="M54.27 29.75l5.86-3.02 19.2 2.44.57 5.11-5.26.74-20.37-5.27z"></path><path fill="#fbbf93" d="M54.44 70.25l5.85 3.02 19.77-7.56-5.25-.73-20.37 5.27z"></path><path fill="#9d5025" d="M55.92 61.77l10.45 1.4V36.83l-10.45 1.39v23.55z"></path><path fill="#9d5025" d="M39.79 86.06l10.2 5.1 8.76-41.22-8.76-41.1-10.2 5.1v72.12z"></path><path d="M50 8.84v82.32l34.1-17.05V25.89zm29.74 56.93l-19.55 5.87V28.36l19.54 5.86z" fill="#f58536"></path><path fill="#f58536" d="M66.37 36.83v26.42l10.87-13.21-10.87-13.21z"></path></g></svg></svg></g></svg></g></g><g opacity="1"><g id="5aed69e0-9fbb-4688-b016-9776eca55ac0" transform="translate(0 0)"><svg x="-304" y="509" overflow="visible"><g transform=" "><circle cx="0" cy="0" fill="rgba(0, 0, 0, 0)" r="40"></circle><svg width="100" height="100" x="-50" y="-50" style="fill: rgb(255, 255, 255);"><svg data-name="Layer 1" xmlns="http://www.w3.org/2000/svg" width="100" height="100" viewBox="0 0 100 100"><g><path fill="#9d5025" d="M15.91 74.12l4.34 2.17 7.67-26.25-7.67-26.33-4.34 2.17v48.24z"></path><path fill="#f58536" d="M28.65 25.71l-8.4-1.97v52.55l8.4-1.97V25.71z"></path><path fill="#9d5025" d="M25.47 21.1l6.37-3.19 7.95 32.13-7.95 32.05-6.37-3.19V21.1z"></path><path fill="#f58536" d="M44.89 77.81l-13.05 4.16V17.91l13.05 4.17v55.73z"></path><path fill="#9d5025" d="M74.52 29.17h5.22v39.95l-5.22-.29V29.17z"></path><path fill="#6b3a19" d="M54.27 29.75l5.86-3.02 19.2 2.44.57 5.11-5.26.74-20.37-5.27z"></path><path fill="#fbbf93" d="M54.44 70.25l5.85 3.02 19.77-7.56-5.25-.73-20.37 5.27z"></path><path fill="#9d5025" d="M55.92 61.77l10.45 1.4V36.83l-10.45 1.39v23.55z"></path><path fill="#9d5025" d="M39.79 86.06l10.2 5.1 8.76-41.22-8.76-41.1-10.2 5.1v72.12z"></path><path d="M50 8.84v82.32l34.1-17.05V25.89zm29.74 56.93l-19.55 5.87V28.36l19.54 5.86z" fill="#f58536"></path><path fill="#f58536" d="M66.37 36.83v26.42l10.87-13.21-10.87-13.21z"></path></g></svg></svg></g></svg></g></g></g><g pointer-events="auto"><g opacity="1"><g id="973e5c2f-5ee1-4b2d-9c89-cba0456c0b2d" transform="translate(0 0)"><svg x="-368" y="675" overflow="visible"><text stroke="#ffffff" stroke-width="4" font-family="Open Sans" y="23.96" font-size="14pt" fill="#ffc107" font-weight="bold" transform="matrix(0.707 0.409 -0.707 0.409 0 0)" xml:space="preserve"><tspan x="8" dy="0">API </tspan><tspan x="8" dy="1.1em">Gateway</tspan></text><text font-family="Open Sans" y="23.96" font-size="14pt" fill="#ffc107" font-weight="bold" transform="matrix(0.707 0.409 -0.707 0.409 0 0)" xml:space="preserve"><tspan x="8" dy="0">API </tspan><tspan x="8" dy="1.1em">Gateway</tspan></text></svg></g></g><g opacity="1"><g id="091782f1-97fa-4b1f-94c6-94b9fdad9809" transform="translate(0 0)"><svg x="-528" y="527" overflow="visible"><text stroke="#ffffff" stroke-width="4" font-family="Open Sans" y="23.96" font-size="14pt" fill="#ffc107" font-weight="bold" transform="matrix(0.707 0.409 -0.707 0.409 0 0)" xml:space="preserve"><tspan x="8" dy="0">S3</tspan></text><text font-family="Open Sans" y="23.96" font-size="14pt" fill="#ffc107" font-weight="bold" transform="matrix(0.707 0.409 -0.707 0.409 0 0)" xml:space="preserve"><tspan x="8" dy="0">S3</tspan></text></svg></g></g><g opacity="1"><g id="809ea171-96d0-45f6-bd0c-c569cefd6e61" transform="translate(0 0)"><svg x="-176" y="638" overflow="visible"><text stroke="#ffffff" stroke-width="4" font-family="Open Sans" y="23.96" font-size="14pt" fill="#ffc107" font-weight="bold" transform="matrix(0.707 0.409 -0.707 0.409 0 0)" xml:space="preserve"><tspan x="8" dy="0">Search</tspan><tspan x="8" dy="1.1em">lambda</tspan></text><text font-family="Open Sans" y="23.96" font-size="14pt" fill="#ffc107" font-weight="bold" transform="matrix(0.707 0.409 -0.707 0.409 0 0)" xml:space="preserve"><tspan x="8" dy="0">Search</tspan><tspan x="8" dy="1.1em">lambda</tspan></text></svg></g></g><g opacity="1"><g id="ae39e737-a50d-47c7-ad60-622568923695" transform="translate(0 0)"><svg x="-112" y="509" overflow="visible"><text stroke="#ffffff" stroke-width="4" font-family="Open Sans" y="23.96" font-size="14pt" fill="#ffc107" font-weight="bold" transform="matrix(0.707 0.409 -0.707 0.409 0 0)" xml:space="preserve"><tspan x="8" dy="0">Elasticsearch</tspan></text><text font-family="Open Sans" y="23.96" font-size="14pt" fill="#ffc107" font-weight="bold" transform="matrix(0.707 0.409 -0.707 0.409 0 0)" xml:space="preserve"><tspan x="8" dy="0">Elasticsearch</tspan></text></svg></g></g><g opacity="1"><g id="95aedf49-1a05-4aa1-896f-ac06e0fc6c92" transform="translate(0 0)"><svg x="-400" y="490" overflow="visible"><text stroke="#ffffff" stroke-width="4" font-family="Open Sans" y="23.96" font-size="14pt" fill="#ffc107" font-weight="bold" transform="matrix(0.707 0.409 -0.707 0.409 0 0)" xml:space="preserve"><tspan x="8" dy="0">Download</tspan><tspan x="8" dy="1.1em">lambda</tspan></text><text font-family="Open Sans" y="23.96" font-size="14pt" fill="#ffc107" font-weight="bold" transform="matrix(0.707 0.409 -0.707 0.409 0 0)" xml:space="preserve"><tspan x="8" dy="0">Download</tspan><tspan x="8" dy="1.1em">lambda</tspan></text></svg></g></g><g opacity="1"><g id="dfb9dbbe-0226-4d71-b531-235fa1d01d23" transform="translate(0 0)"><svg x="-224" y="389" overflow="visible"><text stroke="#ffffff" stroke-width="4" font-family="Open Sans" y="23.96" font-size="14pt" fill="#ffc107" font-weight="bold" transform="matrix(0.707 0.409 -0.707 0.409 0 0)" xml:space="preserve"><tspan x="8" dy="0">Simple</tspan><tspan x="8" dy="1.1em">Email</tspan><tspan x="8" dy="1.1em">Service</tspan></text><text font-family="Open Sans" y="23.96" font-size="14pt" fill="#ffc107" font-weight="bold" transform="matrix(0.707 0.409 -0.707 0.409 0 0)" xml:space="preserve"><tspan x="8" dy="0">Simple</tspan><tspan x="8" dy="1.1em">Email</tspan><tspan x="8" dy="1.1em">Service</tspan></text></svg></g></g><g opacity="1"><g id="842b031b-79c8-46cd-a5a0-5be9976f358a" transform="translate(0 0)"><svg x="-656" y="509" overflow="visible"><text stroke="#ffffff" stroke-width="4" font-family="Open Sans" y="21.68" font-size="12pt" fill="#607d8b" font-weight="bold" transform="matrix(0.707 -0.409 0.707 0.409 0 0)" xml:space="preserve"><tspan x="8" dy="0">Static</tspan><tspan x="8" dy="1.1em">Resources</tspan></text><text font-family="Open Sans" y="21.68" font-size="12pt" fill="#607d8b" font-weight="bold" transform="matrix(0.707 -0.409 0.707 0.409 0 0)" xml:space="preserve"><tspan x="8" dy="0">Static</tspan><tspan x="8" dy="1.1em">Resources</tspan></text></svg></g></g><g opacity="1"><g id="9eed2b1a-4f0d-4816-9aad-70f198ac4282" transform="translate(0 0)"><svg x="-416" y="407" overflow="visible"><text stroke="#ffffff" stroke-width="4" font-family="Open Sans" y="21.68" font-size="12pt" fill="#607d8b" font-weight="bold" transform="matrix(0.707 0.409 -0.707 0.409 0 0)" xml:space="preserve"><tspan x="8" dy="0">Export file</tspan></text><text font-family="Open Sans" y="21.68" font-size="12pt" fill="#607d8b" font-weight="bold" transform="matrix(0.707 0.409 -0.707 0.409 0 0)" xml:space="preserve"><tspan x="8" dy="0">Export file</tspan></text></svg></g></g></g><g></g></g></svg>